#!OML:ASF Y:\EmotionMaleHayes\Project 1\Capture day 1\Session 1\Male1.ASF
:FULLY-SPECIFIED
:DEGREES
793
root 8.78201 17.2329 1.30065 402.284 84.0448 399.71
lowerback 7.08771 3.68989 -9.39431
upperback 8.71829 5.09105 -1.8948
thorax 4.63315 2.2707 3.078
lowerneck -15.2447 -1.35553 4.51801
upperneck 45.6093 0.477884 -2.40497
head 20.7341 1.45424 -1.67151
rclavicle 2.54444e-014 -3.57812e-015
rhumerus -17.0907 47.4434 -96.6133
rradius 136.024
rwrist -12.1478
rhand -23.1324 -19.092
rfingers 7.12502
rthumb 3.31525 -49.046
lclavicle 2.54444e-014 -3.57812e-015
lhumerus -50.1089 -46.4478 83.0124
lradius 93.7869
lwrist -30.3374
lhand -0.5122 -32.5617
lfingers 7.12502
lthumb 25.0997 -4.19136
rfemur -7.16643 -0.39314 6.03285
rtibia 15.5944
rfoot -14.7731 -2.75642
rtoes -11.5392
lfemur 2.38203 7.46463 -22.7153
ltibia -0.922695
lfoot -5.39542 6.16824
ltoes -9.52573
794
root 8.77768 17.229 1.30506 399.772 84.1234 397.295
lowerback 7.10572 3.72666 -9.09408
upperback 8.69534 5.13537 -1.77907
thorax 4.59835 2.30487 3.03003
lowerneck -15.2881 -1.37794 4.38269
upperneck 45.6166 0.507079 -2.4392
head 20.7544 1.43842 -1.65814
rclavicle -1.98785e-016 3.26007e-014
rhumerus -17.0575 47.3506 -96.5366
rradius 136.083
rwrist -11.6475
rhand -23.125 -19.1156
rfingers 7.12502
rthumb 3.32234 -49.0695
lclavicle -1.98785e-016 3.26007e-014
lhumerus -48.5545 -45.7844 82.5444
lradius 93.7148
lwrist -30.5298
lhand -1.74206 -32.6841
lfingers 7.12502
lthumb 23.9208 -4.15408
rfemur -7.10981 -0.300334 6.3712
rtibia 15.6448
rfoot -14.7834 -2.69438
rtoes -11.6621
lfemur 2.45512 7.38589 -22.3838
ltibia -0.828764
lfoot -5.52611 6.33589
ltoes -9.68681
795
root 8.77425 17.2271 1.30863 399.279 84.119 396.948
lowerback 7.32842 4.27228 -8.15147
upperback 7.87529 5.77711 -2.19209
thorax 3.62347 2.72677 1.99685
lowerneck -12.9434 -2.10624 4.53279
upperneck 45.5768 -0.662772 -1.79241
head 19.9359 1.15917 -1.55128
rclavicle -2.32578e-014 3.22031e-014
rhumerus -19.5947 45.4058 -98.5846
rradius 136.279
rwrist -10.7808
rhand -23.0104 -19.0347
rfingers 7.12502
rthumb 3.43302 -48.9868
lclavicle -2.32578e-014 3.22031e-014
lhumerus -49.0737 -47.4014 83.4057
lradius 93.7716
lwrist -30.4945
lhand -2.88185 -32.9339
lfingers 7.12502
lthumb 22.8274 -4.26474
rfemur -6.94133 -0.254432 6.42411
rtibia 15.5588
rfoot -14.762 -2.67607
rtoes -11.7508
lfemur 2.52743 7.27251 -22.3302
ltibia -0.6559
lfoot -5.65784 6.43621
ltoes -9.62166
796
root 8.77446 17.2264 1.31211 400.374 83.9733 398.171
lowerback 7.34998 4.20922 -8.32958
upperback 7.78411 5.66831 -2.13846
thorax 3.50469 2.66609 2.14969
lowerneck -12.7418 -2.06919 4.03065
upperneck 45.5222 -0.538134 -1.53329
head 19.8517 1.15313 -1.30246
rclavicle 4.13472e-014 3.81667e-014
rhumerus -19.438 45.6604 -98.4145
rradius 136.296
rwrist -10.6211
rhand -23.2286 -19.2033
rfingers 7.12502
rthumb 3.22229 -49.1587
lclavicle 4.13472e-014 3.81667e-014
lhumerus -47.9952 -46.5216 83.477
lradius 93.5759
lwrist -30.5139
lhand -4.1626 -33.2775
lfingers 7.12502
lthumb 21.5978 -4.46187
rfemur -6.84012 -0.250206 6.19418
rtibia 15.6204
rfoot -14.8388 -2.55887
rtoes -11.3209
lfemur 2.59094 7.29763 -22.5287
ltibia -0.50404
lfoot -5.74698 6.4282
ltoes -9.88299
797
root 8.77523 17.2256 1.31593 401.948 83.7463 399.804
lowerback 7.26784 4.15746 -8.6276
upperback 7.68831 5.58261 -2.13079
thorax 3.43344 2.6114 2.32702
lowerneck -12.6414 -2.00853 3.77328
upperneck 45.4818 -0.369299 -1.50005
head 19.8042 1.1771 -1.2052
rclavicle -4.37326e-014 3.45885e-014
rhumerus -19.0569 45.8724 -98.1175
rradius 136.26
rwrist -10.3164
rhand -23.5143 -19.3997
rfingers 7.12502
rthumb 2.94638 -49.3591
lclavicle -4.37326e-014 3.45885e-014
lhumerus -46.9001 -45.7748 83.5684
lradius 93.4153
lwrist -30.2986
lhand -5.13173 -33.7038
lfingers 7.12502
lthumb 20.6668 -4.78414
rfemur -6.86902 -0.222747 5.86314
rtibia 15.7886
rfoot -14.9524 -2.44353
rtoes -10.86
lfemur 2.60522 7.35834 -22.8371
ltibia -0.418778
lfoot -5.79587 6.41385
ltoes -10.127
798
root 8.77647 17.2229 1.31971 403.519 83.5726 401.453
lowerback 7.09911 4.11279 -8.89871
upperback 7.71953 5.5358 -2.12749
thorax 3.54628 2.57057 2.49547
lowerneck -12.7763 -1.95519 3.78853
upperneck 45.516 -0.203722 -1.71717
head 19.8742 1.21542 -1.28644
rclavicle -2.18663e-014 2.78299e-014
rhumerus -18.5148 45.8822 -97.6693
rradius 136.211
rwrist -9.97684
rhand -23.4842 -19.2766
rfingers 7.12502
rthumb 2.97549 -49.2355
lclavicle -2.18663e-014 2.78299e-014
lhumerus -45.4319 -45.1733 83.5074
lradius 93.2303
lwrist -30.0485
lhand -5.35707 -34.2772
lfingers 7.12502
lthumb 20.4503 -5.33417
rfemur -6.83843 -0.16854 5.58651
rtibia 15.842
rfoot -14.9618 -2.51604
rtoes -11.1353
lfemur 2.6281 7.33481 -23.125
ltibia -0.296929
lfoot -5.88944 6.41361
ltoes -10.2136
799
root 8.78074 17.219 1.32251 403.915 83.5119 402.02
lowerback 7.01398 4.12348 -8.92211
upperback 7.83196 5.57565 -2.13956
thorax 3.71026 2.58335 2.50515
lowerneck -13.1038 -1.90763 4.09475
upperneck 45.5338 -0.098989 -2.09526
head 19.9859 1.25656 -1.51621
rclavicle -4.46272e-014 7.15625e-015
rhumerus -17.9157 45.6675 -97.2062
rradius 136.147
rwrist -9.65451
rhand -23.5743 -18.9113
rfingers 7.12502
rthumb 2.8885 -48.8715
lclavicle -4.46272e-014 7.15625e-015
lhumerus -43.7411 -44.971 83.3653
lradius 92.9751
lwrist -29.8438
lhand -5.39365 -34.7341
lfingers 7.12502
lthumb 20.4152 -5.78732
rfemur -6.65029 -0.182927 5.49834
rtibia 15.8697
rfoot -14.9793 -2.5093
rtoes -11.5097
lfemur 2.7811 7.36939 -23.1954
ltibia -0.18391
lfoot -6.00179 6.37762
ltoes -10.2583
800
root 8.78486 17.218 1.32381 402.982 83.5196 401.278
lowerback 7.13637 4.46618 -8.3239
upperback 7.62906 6.02809 -2.4221
thorax 3.4548 2.85841 1.841
lowerneck -12.9442 -2.28034 4.4135
upperneck 45.7265 -0.883147 -1.75176
head 20.0289 1.08094 -1.54714
rclavicle -3.598e-014 2.50469e-014
rhumerus -18.1546 44.5047 -97.5712
rradius 136.104
rwrist -8.75471
rhand -23.7238 -18.5884
rfingers 7.12502
rthumb 2.74414 -48.5504
lclavicle -3.598e-014 2.50469e-014
lhumerus -42.6056 -46.3301 83.5443
lradius 92.769
lwrist -29.4985
lhand -5.92579 -34.6789
lfingers 7.12502
lthumb 19.9037 -5.67814
rfemur -6.42837 -0.177767 5.59418
rtibia 15.8806
rfoot -14.9824 -2.39881
rtoes -11.7115
lfemur 3.01344 7.42522 -23.0607
ltibia -0.182228
lfoot -6.06962 6.38051
ltoes -9.88313
801
root 8.78271 17.2164 1.32766 402.138 83.6583 400.564
lowerback 7.17273 4.52573 -8.03582
upperback 7.47182 6.09024 -2.37665
thorax 3.27812 2.90594 1.71691
lowerneck -12.7023 -2.43306 4.17491
upperneck 45.6903 -1.14613 -1.47168
head 19.9239 0.979299 -1.40761
rclavicle 1.45113e-014 9.93923e-015
rhumerus -17.9008 44.0646 -97.2963
rradius 136.083
rwrist -8.9239
rhand -23.3985 -18.1508
rfingers 7.12502
rthumb 3.05824 -48.1086
lclavicle 1.45113e-014 9.93923e-015
lhumerus -41.6469 -46.6651 84.1689
lradius 92.5275
lwrist -29.4472
lhand -6.70351 -34.8628
lfingers 7.12502
lthumb 19.156 -5.78619
rfemur -6.25782 -0.105891 5.80267
rtibia 15.8249
rfoot -14.9558 -2.44242
rtoes -11.5776
lfemur 3.12394 7.4513 -22.8064
ltibia -0.100059
lfoot -6.11472 6.27186
ltoes -9.40752
802
root 8.77314 17.2082 1.33645 402.997 83.9027 401.456
lowerback 7.03281 4.30856 -8.11297
upperback 7.48098 5.80084 -2.13093
thorax 3.35696 2.74456 2.04269
lowerneck -12.7209 -2.31103 3.84246
upperneck 45.5465 -0.785331 -1.67826
head 19.8472 1.02137 -1.3827
rclavicle -9.93923e-016 1.70955e-014
rhumerus -17.004 44.3942 -96.3984
rradius 136.045
rwrist -9.33159
rhand -23.2916 -18.1558
rfingers 7.12502
rthumb 3.16147 -48.1121
lclavicle -9.93923e-016 1.70955e-014
lhumerus -40.5309 -46.1724 84.8113
lradius 92.3545
lwrist -29.6104
lhand -7.13021 -35.4148
lfingers 7.12502
lthumb 18.7456 -6.29805
rfemur -6.15627 -0.131311 5.92682
rtibia 15.7429
rfoot -14.9388 -2.64274
rtoes -11.3189
lfemur 2.9859 7.49045 -22.6277
ltibia 0.1982
lfoot -6.15286 5.96436
ltoes -9.42352
803
root 8.80486 17.2146 1.32737 399.983 83.4335 398.896
lowerback 6.72827 4.19909 -8.37899
upperback 7.77268 5.69897 -1.85433
thorax 3.7996 2.65276 2.5177
lowerneck -13.1275 -2.069 3.11004
upperneck 45.6676 -0.0987263 -1.86206
head 20.0928 1.13031 -1.21489
rclavicle 1.14301e-014 -1.86858e-014
rhumerus -15.8586 45.3838 -95.2793
rradius 135.982
rwrist -9.50534
rhand -23.4713 -18.2583
rfingers 7.12502
rthumb 2.98796 -48.2171
lclavicle 1.14301e-014 -1.86858e-014
lhumerus -39.3989 -45.2502 85.5414
lradius 92.2371
lwrist -29.8707
lhand -7.23465 -35.7032
lfingers 7.12502
lthumb 18.6451 -6.57674
rfemur -5.64087 0.0328267 5.8068
rtibia 15.6
rfoot -14.8015 -2.20524
rtoes -11.7327
lfemur 3.88335 7.28386 -22.7789
ltibia -0.269161
lfoot -6.29396 6.64092
ltoes -9.58085
